<svg xmlns="http://www.w3.org/2000/svg"><symbol id="arrow-down" viewBox="0 0 800 800"><path d="M584 240.04L216 240l184 320z"/></symbol><symbol id="arrow-left" viewBox="0 0 24 24"><path d="M17 11H9.414l2.293-2.293a.999.999 0 1 0-1.414-1.414L5.586 12l4.707 4.707a.997.997 0 0 0 1.414 0 .999.999 0 0 0 0-1.414L9.414 13H17a1 1 0 0 0 0-2z"/></symbol><symbol id="arrow-right" viewBox="0 0 24 24"><path d="M13.293 7.293a.999.999 0 0 0 0 1.414L15.586 11H8a1 1 0 0 0 0 2h7.586l-2.293 2.293a.999.999 0 1 0 1.414 1.414L19.414 12l-4.707-4.707a.999.999 0 0 0-1.414 0z"/></symbol><symbol id="arrow-sorted-down" viewBox="0 0 24 24"><path d="M5.8 9.7L12 16l6.2-6.3c.2-.2.3-.5.3-.7s-.1-.5-.3-.7c-.2-.2-.4-.3-.7-.3h-11c-.3 0-.5.1-.7.3-.2.2-.3.4-.3.7s.1.5.3.7z"/></symbol><symbol id="arrow-sorted-up" viewBox="0 0 24 24"><path d="M18.2 13.3L12 7l-6.2 6.3c-.2.2-.3.5-.3.7s.1.5.3.7c.2.2.4.3.7.3h11c.3 0 .5-.1.7-.3.2-.2.3-.5.3-.7s-.1-.5-.3-.7z"/></symbol><symbol id="arrow-up" viewBox="0 0 800 800"><path d="M216 560h368L399.96 240z"/></symbol><symbol id="bars" viewBox="0 0 20 20"><path d="M17.5 20h-16C.673 20 0 19.327 0 18.5v-16C0 1.673.673 1 1.5 1h16c.827 0 1.5.673 1.5 1.5v16c0 .827-.673 1.5-1.5 1.5zM1.5 2a.5.5 0 0 0-.5.5v16a.5.5 0 0 0 .5.5h16a.5.5 0 0 0 .5-.5v-16a.5.5 0 0 0-.5-.5h-16z"/><path d="M6.5 17h-2a.5.5 0 0 1-.5-.5v-9a.5.5 0 0 1 .5-.5h2a.5.5 0 0 1 .5.5v9a.5.5 0 0 1-.5.5zM5 16h1V8H5v8zM10.5 17h-2a.5.5 0 0 1-.5-.5v-12a.5.5 0 0 1 .5-.5h2a.5.5 0 0 1 .5.5v12a.5.5 0 0 1-.5.5zM9 16h1V5H9v11zM14.5 17h-2a.5.5 0 0 1-.5-.5v-5a.5.5 0 0 1 .5-.5h2a.5.5 0 0 1 .5.5v5a.5.5 0 0 1-.5.5zM13 16h1v-4h-1v4z"/></symbol><symbol id="chart-line-outline" viewBox="0 0 24 24"><path d="M5.999 17a3.014 3.014 0 0 1-1.873-.658 2.978 2.978 0 0 1-1.107-2.011 2.979 2.979 0 0 1 .639-2.206l4-5c.978-1.225 2.883-1.471 4.143-.523l1.674 1.254 2.184-2.729a3 3 0 1 1 4.682 3.747l-4 5c-.977 1.226-2.882 1.471-4.143.526l-1.674-1.256-2.184 2.729A2.977 2.977 0 0 1 5.999 17zM10 8a.997.997 0 0 0-.781.374l-4 5.001a.99.99 0 0 0-.213.734c.03.266.161.504.369.67a.996.996 0 0 0 1.406-.155l3.395-4.244L13.4 12.8c.42.316 1.056.231 1.381-.176l4-5.001a.992.992 0 0 0 .213-.734.994.994 0 0 0-.369-.67.996.996 0 0 0-1.406.156l-3.395 4.242L10.6 8.2A.986.986 0 0 0 10 8zm9 13H5a1 1 0 1 1 0-2h14a1 1 0 1 1 0 2z"/></symbol><symbol id="checkmark" viewBox="0 0 1000 1000"><path fill="#FFF" d="M388.118 896.188L-.424 513.766l192.752-189.717 195.79 192.707L807.67 103.815l192.752 189.717-612.304 602.656zM105.383 513.766L388.12 792.049l506.5-498.518-86.948-85.578L388.12 620.894 192.33 428.185l-86.947 85.581z"/></symbol><symbol id="cog-outline" viewBox="0 0 24 24"><path d="M13 5l.855 3.42 3.389-.971 1.501 2.6-2.535 2.449 2.535 2.451-1.5 2.6-3.39-.971L13 20h-3l-.855-3.422-3.39.971-1.501-2.6 2.535-2.451-2.534-2.449 1.5-2.6 3.39.971L10 5h3m0-2h-3c-.918 0-1.718.625-1.939 1.516l-.354 1.412-1.4-.4a2 2 0 0 0-2.283.922l-1.5 2.6a2 2 0 0 0 .342 2.438l1.047 1.011-1.048 1.015a2 2 0 0 0-.343 2.438l1.502 2.6a1.997 1.997 0 0 0 2.283.924l1.399-.401.354 1.415A2 2 0 0 0 10 22h3c.918 0 1.718-.625 1.939-1.516l.354-1.414 1.399.4a2 2 0 0 0 2.283-.923l1.5-2.6c.459-.796.317-1.8-.342-2.438l-1.047-1.013 1.047-1.013a2 2 0 0 0 .342-2.438l-1.5-2.6a2 2 0 0 0-2.283-.924l-1.4.401-.354-1.413A1.997 1.997 0 0 0 13 3zm-1.5 7.5a2 2 0 1 1 0 4 2 2 0 0 1 0-4m0-1c-1.654 0-3 1.346-3 3s1.346 3 3 3 3-1.346 3-3-1.346-3-3-3z"/></symbol><symbol id="cog" viewBox="0 0 20 20"><path d="M7.631 19.702a.493.493 0 0 1-.125-.016 9.952 9.952 0 0 1-2.564-1.059.5.5 0 0 1-.186-.671 2.002 2.002 0 0 0-2.714-2.714.5.5 0 0 1-.671-.186 9.967 9.967 0 0 1-1.059-2.564.5.5 0 0 1 .325-.598 1.999 1.999 0 0 0 0-3.79.5.5 0 0 1-.325-.598 9.952 9.952 0 0 1 1.059-2.564.5.5 0 0 1 .671-.186 2.001 2.001 0 0 0 2.714-2.714.5.5 0 0 1 .186-.671A9.967 9.967 0 0 1 7.506.312a.5.5 0 0 1 .598.325 1.999 1.999 0 0 0 3.79 0 .5.5 0 0 1 .598-.325 9.952 9.952 0 0 1 2.564 1.059.5.5 0 0 1 .186.671 2.002 2.002 0 0 0 2.714 2.714.5.5 0 0 1 .671.186 9.967 9.967 0 0 1 1.059 2.564.5.5 0 0 1-.325.598 1.999 1.999 0 0 0 0 3.79.5.5 0 0 1 .325.598 9.952 9.952 0 0 1-1.059 2.564.5.5 0 0 1-.671.186 2.002 2.002 0 0 0-2.714 2.714.5.5 0 0 1-.186.671 9.967 9.967 0 0 1-2.564 1.059.5.5 0 0 1-.598-.325 1.999 1.999 0 0 0-3.79 0 .502.502 0 0 1-.474.341zM10 17a3 3 0 0 1 2.655 1.602 9.019 9.019 0 0 0 1.51-.622 3.004 3.004 0 0 1 3.816-3.816c.253-.484.462-.989.622-1.51a2.999 2.999 0 1 1 0-5.31 9.019 9.019 0 0 0-.622-1.51 3.004 3.004 0 0 1-3.816-3.816 8.901 8.901 0 0 0-1.51-.622 2.999 2.999 0 1 1-5.31 0c-.52.16-1.026.369-1.51.622a3.004 3.004 0 0 1-3.816 3.816 8.901 8.901 0 0 0-.622 1.51 2.999 2.999 0 1 1 0 5.31c.16.52.369 1.026.622 1.51a3.004 3.004 0 0 1 3.816 3.816c.484.253.989.462 1.51.622A2.998 2.998 0 0 1 10 17z"/><path d="M10 13c-1.654 0-3-1.346-3-3s1.346-3 3-3 3 1.346 3 3-1.346 3-3 3zm0-5c-1.103 0-2 .897-2 2s.897 2 2 2 2-.897 2-2-.897-2-2-2z"/></symbol><symbol id="cross" viewBox="0 0 20 20"><path d="M10.707 10.5l5.646-5.646a.5.5 0 0 0-.707-.707L10 9.793 4.354 4.147a.5.5 0 0 0-.707.707L9.293 10.5l-5.646 5.646a.5.5 0 0 0 .708.707l5.646-5.646 5.646 5.646a.498.498 0 0 0 .708 0 .5.5 0 0 0 0-.707L10.709 10.5z"/></symbol><symbol id="delete" viewBox="0 0 800 800"><path d="M400 100c-165.434 0-300 134.6-300 300s134.566 300 300 300 300-134.6 300-300-134.566-300-300-300zm0 533.334c-128.634 0-233.334-104.666-233.334-233.334S271.366 166.666 400 166.666 633.334 271.332 633.334 400 528.634 633.334 400 633.334z"/><path d="M423.566 400l88.2-88.2c6.466-6.466 6.466-17.066 0-23.566-6.5-6.466-17.1-6.466-23.566 0l-88.2 88.2-88.2-88.234c-6.5-6.466-17.1-6.466-23.566 0-6.5 6.5-6.5 17.1 0 23.566l88.2 88.234-88.2 88.2c-6.5 6.5-6.5 17.1 0 23.566 3.234 3.266 7.5 4.9 11.766 4.9s8.534-1.634 11.8-4.866l88.2-88.234 88.2 88.2c3.266 3.266 7.534 4.9 11.8 4.9s8.534-1.634 11.8-4.866c6.466-6.466 6.466-17.066 0-23.566L423.566 400z"/></symbol><symbol id="document-text" viewBox="0 0 24 24"><path d="M17 21H7c-1.654 0-3-1.346-3-3V6c0-1.654 1.346-3 3-3h10c1.654 0 3 1.346 3 3v12c0 1.654-1.346 3-3 3zM7 5c-.551 0-1 .449-1 1v12c0 .551.449 1 1 1h10c.551 0 1-.449 1-1V6c0-.551-.449-1-1-1H7zm9 6H8a.5.5 0 0 1 0-1h8a.5.5 0 0 1 0 1zm0-3H8a.5.5 0 0 1 0-1h8a.5.5 0 0 1 0 1zm0 6H8a.5.5 0 0 1 0-1h8a.5.5 0 0 1 0 1zm0 3H8a.5.5 0 0 1 0-1h8a.5.5 0 0 1 0 1z"/></symbol><symbol id="download" viewBox="0 0 24 24"><path d="M20.986 17c0-.105-.004-.211-.038-.316l-2-6A.997.997 0 0 0 18 10h-.561l.682-.678a3.002 3.002 0 0 0 0-4.242c-.81-.812-2.068-1.078-3.121-.709V3c0-1.654-1.346-3-3-3S9 1.346 9 3v1.371c-1.052-.369-2.311-.103-3.121.709a3.003 3.003 0 0 0 .002 4.244l.68.676H6a.997.997 0 0 0-.948.684l-2 6a1.007 1.007 0 0 0-.038.316C3 17 3 22 3 22a1 1 0 0 0 1 1h16a1 1 0 0 0 1-1s0-5-.014-5zM7.293 6.494a1 1 0 0 1 1.414 0L11 8.787V3a1 1 0 0 1 2 0v5.787l2.293-2.293a1.025 1.025 0 0 1 1.414 0 .998.998 0 0 1 .002 1.412L12 12.59 7.293 7.908a.999.999 0 0 1 0-1.414zM6.721 12h1.852l3.429 3.41L15.43 12h1.852l1.667 5H5.055l1.666-5zM19 21H5v-3h14v3z"/></symbol><symbol id="euro" viewBox="0 0 16 16"><path d="M7.5 1a7.5 7.5 0 1 0 0 15 7.5 7.5 0 0 0 0-15zm0 13.5a6 6 0 1 1 0-12 6 6 0 0 1 0 12z"/><path d="M10.482 10.068a.5.5 0 0 0-.684.181A1.51 1.51 0 0 1 8.5 11h-2a1.502 1.502 0 0 1-1.414-1H7.5a.5.5 0 0 0 0-1H5V8h2.5a.5.5 0 0 0 0-1H5.086c.206-.582.762-1 1.414-1h2a1.51 1.51 0 0 1 1.298.751.5.5 0 1 0 .865-.503 2.513 2.513 0 0 0-2.162-1.249h-2c-1.207 0-2.217.86-2.45 2h-.55a.5.5 0 0 0 0 1h.5v1h-.5a.5.5 0 0 0 0 1h.55c.232 1.14 1.242 2 2.45 2h2a2.51 2.51 0 0 0 2.162-1.249.5.5 0 0 0-.181-.684z"/></symbol><symbol id="file" viewBox="0 0 20 20"><path d="M17.854 5.646l-4.5-4.5A.5.5 0 0 0 13 1H3.5C2.673 1 2 1.673 2 2.5v16c0 .827.673 1.5 1.5 1.5h13c.827 0 1.5-.673 1.5-1.5V6a.504.504 0 0 0-.146-.354zM16.793 6H13.5a.5.5 0 0 1-.5-.5V2.207L16.793 6zM17 18.5a.5.5 0 0 1-.5.5h-13a.5.5 0 0 1-.5-.5v-16a.5.5 0 0 1 .5-.5H12v3.5c0 .827.673 1.5 1.5 1.5H17v11.5z"/></symbol><symbol id="group-outline" viewBox="0 0 24 24"><path d="M12 14c2.764 0 5-2.238 5-5s-2.236-5-5-5-5 2.238-5 5 2.236 5 5 5zm0-8c1.654 0 3 1.346 3 3s-1.346 3-3 3-3-1.346-3-3 1.346-3 3-3zm8 9a2.5 2.5 0 1 0 0-5 2.5 2.5 0 0 0 0 5zm0-4c.827 0 1.5.673 1.5 1.5S20.827 14 20 14s-1.5-.673-1.5-1.5.673-1.5 1.5-1.5zm0 4.59c-1.331 0-2.332.406-2.917.969C15.968 15.641 14.205 15 12 15c-2.266 0-3.995.648-5.092 1.564-.596-.565-1.608-.975-2.908-.975-2.188 0-3.5 1.091-3.5 2.183 0 .545 1.312 1.092 3.5 1.092.604 0 1.146-.051 1.623-.133l-.04.27c0 1 2.405 2 6.417 2 3.762 0 6.417-1 6.417-2l-.021-.255c.463.073.996.118 1.604.118 2.051 0 3.5-.547 3.5-1.092 0-1.092-1.373-2.182-3.5-2.182zM4 17.863c-1.309 0-2.068-.207-2.417-.354.239-.405 1.003-.92 2.417-.92 1.107 0 1.837.351 2.208.706l-.235.344c-.452.119-1.108.224-1.973.224zM12 19c-2.163 0-3.501-.312-4.184-.561C8.337 17.761 9.734 17 12 17c2.169 0 3.59.761 4.148 1.425-.755.27-2.162.575-4.148.575zm8-1.137c-.914 0-1.546-.103-1.973-.213a3.42 3.42 0 0 0-.248-.375c.356-.345 1.071-.685 2.221-.685 1.324 0 2.141.501 2.404.911-.39.163-1.205.362-2.404.362zM4 15a2.5 2.5 0 1 0 0-5 2.5 2.5 0 0 0 0 5zm0-4c.827 0 1.5.673 1.5 1.5S4.827 14 4 14s-1.5-.673-1.5-1.5S3.173 11 4 11z"/></symbol><symbol id="home-outline" viewBox="0 0 24 24"><path d="M22.262 10.468c-3.39-2.854-9.546-8.171-9.607-8.225L12 1.68l-.652.563c-.062.053-6.221 5.368-9.66 8.248A2.042 2.042 0 0 0 1 12a2 2 0 0 0 2 2h1v6a2 2 0 0 0 2 2h12a2 2 0 0 0 2-2v-6h1a2 2 0 0 0 2-2c0-.598-.275-1.161-.738-1.532zM14 20h-4v-5h4v5zm4-8l.002 8H15v-6H9v6H6v-8H2.999C5.764 9.688 10.314 5.773 12 4.32c1.686 1.453 6.234 5.367 9 7.681L18 12z"/></symbol><symbol id="paperclip" viewBox="0 0 20 20"><path d="M9.5 20A4.505 4.505 0 0 1 5 15.5v-12C5 1.57 6.57 0 8.5 0S12 1.57 12 3.5v11c0 1.378-1.122 2.5-2.5 2.5S7 15.878 7 14.5v-6a.5.5 0 0 1 1 0v6c0 .827.673 1.5 1.5 1.5s1.5-.673 1.5-1.5v-11C11 2.122 9.878 1 8.5 1S6 2.122 6 3.5v12C6 17.43 7.57 19 9.5 19s3.5-1.57 3.5-3.5v-7a.5.5 0 0 1 1 0v7c0 2.481-2.019 4.5-4.5 4.5z"/></symbol><symbol id="pencil" viewBox="0 0 60 60"><path d="M29.713 59.045a.665.665 0 0 0 .236.154.678.678 0 0 0 .275.057h.006c.007 0 .012-.004.02-.004a.7.7 0 0 0 .307-.092c.03-.014.055-.033.084-.055.027-.021.062-.031.087-.057.042-.043.064-.094.093-.139.011-.02.032-.025.041-.045l6.653-13.07a.731.731 0 0 0 .08-.328V10.712c.011-.047.028-.091.029-.14V2.98A2.242 2.242 0 0 0 35.385.744H24.756a2.22 2.22 0 0 0-1.58.655 2.223 2.223 0 0 0-.656 1.581v7.422c-.008.047-.028.091-.028.139l-.116 34.819a.702.702 0 0 0 .085.342l4.784 8.846m-1.014-43.287l.204 31.647-2.618 1.447.109-33.094h2.305zm1.639 31.768l-.207-31.768h4.947l-.042 31.731-2.367 2.369-2.331-2.332zm6.136-.209l.042-31.559h2.109v32.915l-2.151-1.356zm-6.978 1.401l2.665 2.662a.716.716 0 0 0 1.015 0l2.728-2.725 2.499 1.576-5.733 11.262-6.049-11.186 2.878-1.59h-.003zM24.19 2.414a.796.796 0 0 1 .565-.234h10.629c.442 0 .802.358.803.801v6.846H23.958V2.981a.788.788 0 0 1 .233-.567h-.001z"/></symbol><symbol id="plus" viewBox="0 0 24 24"><path d="M18 10h-4V6a2 2 0 0 0-4 0l.071 4H6a2 2 0 0 0 0 4l4.071-.071L10 18a2 2 0 0 0 4 0v-4.071L18 14a2 2 0 0 0 0-4z"/></symbol><symbol id="trash" viewBox="0 0 24 24"><path d="M18 7h-1V6a2 2 0 0 0-2-2H8a2 2 0 0 0-2 2v1H5a1 1 0 0 0 0 2v8c0 2.206 1.794 4 4 4h5c2.206 0 4-1.794 4-4V9a1 1 0 0 0 0-2zM8 6h7v1H8V6zm8 11a2 2 0 0 1-2 2H9a2 2 0 0 1-2-2V9h9v8zm-7.5-6.5c-.275 0-.5.225-.5.5v6c0 .275.225.5.5.5s.5-.225.5-.5v-6c0-.275-.225-.5-.5-.5zm2 0c-.275 0-.5.225-.5.5v6c0 .275.225.5.5.5s.5-.225.5-.5v-6c0-.275-.225-.5-.5-.5zm2 0c-.275 0-.5.225-.5.5v6c0 .275.225.5.5.5s.5-.225.5-.5v-6c0-.275-.225-.5-.5-.5zm2 0c-.275 0-.5.225-.5.5v6c0 .275.225.5.5.5s.5-.225.5-.5v-6c0-.275-.225-.5-.5-.5z"/></symbol></svg>