<?xml version="1.0" encoding="utf-8"?>
<!-- Generated by IcoMoon.io -->
<!DOCTYPE svg PUBLIC "-//W3C//DTD SVG 1.1//EN" "http://www.w3.org/Graphics/SVG/1.1/DTD/svg11.dtd">
<svg version="1.1" xmlns="http://www.w3.org/2000/svg" width="800"
	 height="800" viewBox="0 0 800 800">
	<path fill="#000000"
		  d="M400 100c-165.434 0-300 134.6-300 300s134.566 300 300 300 300-134.6 300-300-134.566-300-300-300zM400 633.334c-128.634 0-233.334-104.666-233.334-233.334s104.7-233.334 233.334-233.334 233.334 104.666 233.334 233.334-104.7 233.334-233.334 233.334z"></path>
	<path fill="#000000"
		  d="M423.566 400l88.2-88.2c6.466-6.466 6.466-17.066 0-23.566-6.5-6.466-17.1-6.466-23.566 0l-88.2 88.2-88.2-88.234c-6.5-6.466-17.1-6.466-23.566 0-6.5 6.5-6.5 17.1 0 23.566l88.2 88.234-88.2 88.2c-6.5 6.5-6.5 17.1 0 23.566 3.234 3.266 7.5 4.9 11.766 4.9s8.534-1.634 11.8-4.866l88.2-88.234 88.2 88.2c3.266 3.266 7.534 4.9 11.8 4.9s8.534-1.634 11.8-4.866c6.466-6.466 6.466-17.066 0-23.566l-88.234-88.234z"></path>
</svg>
