<svg id="Layer_1" data-name="Layer 1" xmlns="http://www.w3.org/2000/svg" viewBox="0 0 59.97 9.16">
  <g fill="currentColor">
    <polygon points="5.4 5 1.48 0.17 0 0.17 0 8.96 1.98 8.96 1.98 3.68 6.2 8.96 7.38 8.96 7.38 0.16 5.4 0.16 5.4 5"/>
    <path d="M13.21.17,9.26,9h2.15l.72-1.58h4.13L17,9h2.17L15.2.17Zm2.25,5.34H12.95L14.2,2.63Z"/>
    <polygon points="23.71 6.35 21.31 0.17 19.1 0.17 22.76 9 24.67 9 28.32 0.17 26.11 0.17 23.71 6.35"/>
    <path d="M34.75,0a4.39,4.39,0,0,0-4.52,4.63,4.29,4.29,0,0,0,4.52,4.53,4.32,4.32,0,0,0,4.51-4.54A4.72,4.72,0,0,0,38,1.25,4.4,4.4,0,0,0,34.75,0Zm-1.8,2.54a2.68,2.68,0,0,1,3.59,0,2.93,2.93,0,0,1,.76,2.11,2.55,2.55,0,1,1-5.1,0A2.91,2.91,0,0,1,32.94,2.54Z"/>
    <path d="M49.25,3.15A3,3,0,0,0,46,.17H41.83V9h2V6.15L45,6.09,47.59,9H49.9L47.29,5.9A2.68,2.68,0,0,0,49.25,3.15ZM43.82,2H46a1.11,1.11,0,0,1,1.24,1.14A1.11,1.11,0,0,1,46,4.33H43.82Z"/>
    <polygon points="59.97 0.17 59.59 0.17 57.52 0.26 55.46 3.46 53.32 0.17 51.07 0.17 54.47 5.3 54.47 8.96 56.45 8.96 56.41 5.41 59.97 0.17"/>
  </g>
</svg>
