<?xml version="1.0" encoding="utf-8"?>
<!-- Generator: Adobe Illustrator 16.0.4, SVG Export Plug-In . SVG Version: 6.00 Build 0)  -->
<!DOCTYPE svg PUBLIC "-//W3C//DTD SVG 1.1//EN" "http://www.w3.org/Graphics/SVG/1.1/DTD/svg11.dtd">
<svg version="1.1" id="Layer_1" xmlns="http://www.w3.org/2000/svg"  x="0px" y="0px"
	 width="60px" height="60px" viewBox="0 0 60 60" enable-background="new 0 0 60 60" xml:space="preserve">
<path d="M29.713,59.045c0.068,0.068,0.148,0.121,0.236,0.154c0.088,0.039,0.182,0.057,0.275,0.057c0.003,0,0.004,0,0.006,0
	c0.007,0,0.012-0.004,0.02-0.004c0.107-0.004,0.209-0.039,0.307-0.092c0.03-0.014,0.055-0.033,0.084-0.055
	c0.027-0.021,0.062-0.031,0.087-0.057c0.042-0.043,0.064-0.094,0.093-0.139c0.011-0.02,0.032-0.025,0.041-0.045l6.653-13.07
	c0.052-0.104,0.08-0.215,0.08-0.328V10.712c0.011-0.047,0.028-0.091,0.029-0.14V2.98c0-1.231-1.005-2.235-2.239-2.236H24.756
	c-0.596,0-1.157,0.232-1.58,0.655C22.754,1.82,22.52,2.384,22.52,2.98v7.422c-0.008,0.047-0.028,0.091-0.028,0.139l-0.116,34.819
	c-0.002,0.117,0.028,0.236,0.085,0.342l4.784,8.846 M26.231,11.261l0.204,31.647l-2.618,1.447l0.109-33.094H26.231z M27.87,43.029
	l-0.207-31.768h4.947l-0.042,31.731l-2.367,2.369L27.87,43.029L27.87,43.029z M34.006,42.82l0.042-31.559h2.109v32.915L34.006,42.82
	z M27.028,44.221l2.665,2.662c0.28,0.281,0.735,0.281,1.015,0l2.728-2.725l2.499,1.576l-5.733,11.262l-6.049-11.186l2.878-1.59
	H27.028z M24.19,2.414c0.152-0.151,0.352-0.234,0.565-0.234h10.629c0.442,0,0.802,0.358,0.803,0.801v6.846H23.958l0-6.846
	c-0.002-0.214,0.082-0.416,0.233-0.567H24.19z"/>
</svg>
